<svg xmlns="http://www.w3.org/2000/svg" version="1.1" xmlns:xlink="http://www.w3.org/1999/xlink" xmlns:svgjs="http://svgjs.dev/svgjs" width="1000" height="625" viewBox="0 0 1000 625"><g transform="matrix(1,0,0,1,0,0)"><svg viewBox="0 0 512 320" data-background-color="#ffffff" preserveAspectRatio="xMidYMid meet" height="625" width="1000" xmlns="http://www.w3.org/2000/svg" xmlns:xlink="http://www.w3.org/1999/xlink"><g id="tight-bounds" transform="matrix(1,0,0,1,0,0)"><svg viewBox="0 0 512 320" height="320" width="512"><g><svg></svg></g><g><svg viewBox="0 0 512 320" height="320" width="512"><g><path transform="translate(256,160) scale(226.27417,226.27417)" d="M-0.707 0.707l0-1.414 1.414 0 0 1.414z" fill="#ffffff" fill-rule="nonzero" stroke="none" stroke-width="1" stroke-linecap="butt" stroke-linejoin="miter" stroke-miterlimit="10" stroke-dasharray="" stroke-dashoffset="0" font-family="none" font-weight="none" font-size="none" text-anchor="none" style="mix-blend-mode: normal" data-fill-palette-color="tertiary"></path></g><g transform="matrix(1,0,0,1,200.15985903506797,80)"><svg viewBox="0 0 111.68028192986405 160" height="160" width="111.68028192986405"><g><svg viewBox="0 0 111.68028192986405 160" height="160" width="111.68028192986405"><g><svg viewBox="0 0 230.4 330.0851266040932" height="160" width="111.68028192986405"><g transform="matrix(1,0,0,1,0,196.47660413998946)"><svg viewBox="0 0 230.4 133.60852246410374" height="133.60852246410374" width="230.4"><g id="textblocktransform"><svg viewBox="0 0 230.4 133.60852246410374" height="133.60852246410374" width="230.4" id="textblock"><g><svg viewBox="0 0 230.4 133.60852246410374" height="133.60852246410374" width="230.4"><g transform="matrix(1,0,0,1,0,0)"><svg width="230.4" viewBox="3.91 -30.49 52.7 30.56" height="133.60852246410374" data-palette-color="#d33939"><path d="M5.66 0.07Q4.74 0.07 4.32-0.16 3.91-0.39 3.91-0.88L3.91-0.88 3.91-29.52Q3.91-30.49 5.66-30.49L5.66-30.49 7.2-30.49Q8.64-30.49 9.03-29.69L9.03-29.69 17.24-15.45 18.36-12.72 19.48-15.21 27.71-29.69Q28.13-30.49 29.52-30.49L29.52-30.49 30.96-30.49Q32.69-30.49 32.69-29.52L32.69-29.52 32.69-0.88Q32.69 0.07 30.96 0.07L30.96 0.07 30.66 0.07Q29.74 0.07 29.32-0.16 28.91-0.39 28.91-0.88L28.91-0.88 28.91-24.24 28.83-24.05 20.19-9.03Q20.02-8.74 19.8-8.61 19.58-8.47 19.24-8.47L19.24-8.47 17.5-8.47Q16.85-8.47 16.53-9.03L16.53-9.03 7.69-24.49 7.69-0.88Q7.69 0.07 5.96 0.07L5.96 0.07 5.66 0.07ZM42.53 0.07Q40.77 0.07 40.77-0.88L40.77-0.88 40.77-29.08Q40.77-29.76 41.09-30.07 41.4-30.37 42.09-30.37L42.09-30.37 55.76-30.37Q56.22-30.37 56.42-30.07 56.61-29.76 56.61-29.08L56.61-29.08 56.61-28.37Q56.61-27.71 56.42-27.39 56.22-27.08 55.76-27.08L55.76-27.08 44.6-27.08 44.6-17.19 54.98-17.19Q55.42-17.19 55.64-16.87 55.86-16.55 55.86-15.87L55.86-15.87 55.86-15.21Q55.86-14.53 55.64-14.22 55.42-13.92 54.98-13.92L54.98-13.92 44.6-13.92 44.6-0.88Q44.6 0.07 42.87 0.07L42.87 0.07 42.53 0.07Z" opacity="1" transform="matrix(1,0,0,1,0,0)" fill="#d33939" class="wordmark-text-0" data-fill-palette-color="quaternary" id="text-0"></path></svg></g></svg></g></svg></g></svg></g><g transform="matrix(1,0,0,1,44.0064,0)"><svg viewBox="0 0 142.3872 164.9348385907537" height="164.9348385907537" width="142.3872"><g><svg xmlns="http://www.w3.org/2000/svg" xmlns:xlink="http://www.w3.org/1999/xlink" version="1.1" x="0" y="0" viewBox="9.638 3.247 80.72399999999999 93.507" enable-background="new 0 0 100 100" xml:space="preserve" height="164.9348385907537" width="142.3872" class="icon-icon-0" data-fill-palette-color="quaternary" id="icon-0"><g fill="#d33939" data-fill-palette-color="quaternary"><g fill="#d33939" data-fill-palette-color="quaternary"><polygon points="36.703,11.011 9.638,26.636 9.638,38.757 36.703,23.131 63.767,38.757 63.767,26.636   " fill="#d33939" data-fill-palette-color="quaternary"></polygon></g><g fill="#d33939" data-fill-palette-color="quaternary"><polygon points="63.298,89.092 36.233,73.467 36.233,61.348 63.298,76.973 90.362,61.348 90.362,73.467   " fill="#d33939" data-fill-palette-color="quaternary"></polygon></g><g fill="#d33939" data-fill-palette-color="quaternary"><polygon points="9.638,42.012 36.703,26.386 47.198,32.446 20.134,48.072 20.134,79.324 9.638,73.264   " fill="#d33939" data-fill-palette-color="quaternary"></polygon></g><g fill="#d33939" data-fill-palette-color="quaternary"><polygon points="77.083,18.872 50.018,3.247 39.522,9.307 66.586,24.932 66.586,56.184 77.083,50.124   " fill="#d33939" data-fill-palette-color="quaternary"></polygon></g><g fill="#d33939" data-fill-palette-color="quaternary"><polygon points="23.01,81.127 23.011,49.876 33.507,43.816 33.507,75.068 60.571,90.693 50.075,96.754   " fill="#d33939" data-fill-palette-color="quaternary"></polygon></g><g fill="#d33939" data-fill-palette-color="quaternary"><polygon points="90.362,58.092 90.362,26.84 79.866,20.78 79.866,52.031 52.802,67.658 63.298,73.719   " fill="#d33939" data-fill-palette-color="quaternary"></polygon></g></g></svg></g></svg></g><g></g></svg></g></svg></g></svg></g></svg></g><defs></defs></svg><rect width="512" height="320" fill="none" stroke="none" visibility="hidden"></rect></g></svg></g></svg>