<svg xmlns="http://www.w3.org/2000/svg" version="1.1" xmlns:xlink="http://www.w3.org/1999/xlink" xmlns:svgjs="http://svgjs.dev/svgjs" width="128" height="128" viewBox="0 0 128 128"><g transform="matrix(0.8046875,0,0,0.8046875,12.230868006652592,1.1518606496710504)"><svg viewBox="0 0 77 95" data-background-color="#89939e" preserveAspectRatio="xMidYMid meet" height="157" width="128" xmlns="http://www.w3.org/2000/svg" xmlns:xlink="http://www.w3.org/1999/xlink"><g id="tight-bounds" transform="matrix(1,0,0,1,0.20119576201699374,-0.24049999999999727)"><svg viewBox="0 0 76.597608475966 95.48100000000001" height="95.48100000000001" width="76.597608475966"><g><svg viewBox="0 0 76.597608475966 95.48100000000001" height="95.48100000000001" width="76.597608475966"><g><svg viewBox="0 0 76.597608475966 95.48100000000001" height="95.48100000000001" width="76.597608475966"><g id="textblocktransform"><svg viewBox="0 0 76.597608475966 95.48100000000001" height="95.48100000000001" width="76.597608475966" id="textblock"><g><svg viewBox="0 0 76.597608475966 95.48100000000001" height="95.48100000000001" width="76.597608475966"><g><svg viewBox="0 0 76.597608475966 95.48100000000001" height="95.48100000000001" width="76.597608475966"><g><svg xmlns="http://www.w3.org/2000/svg" xmlns:xlink="http://www.w3.org/1999/xlink" version="1.1" x="0" y="0" viewBox="17.553708686867402 9.681274474902095 66.11867564080345 82.4187255250979" enable-background="new 0 0 100 100" xml:space="preserve" height="95.48100000000001" width="76.597608475966" class="icon-icon-0" data-fill-palette-color="accent" id="icon-0"><g fill="#ffffff" data-fill-palette-color="accent"><g fill="#ffffff" data-fill-palette-color="accent"><path fill="#ffffff" d="M51 92.1C51 92.1 51 92.1 51 92.1c-7.5 0-10.1-3.5-10.5-4.2-0.6-0.6-5-4.9-10.3-4.9 0 0-0.1 0-0.1 0-6.5 0-12-4.4-12.5-10.1-0.4-5 1.8-9.6 6.3-13.3 2.6-2.2 5.3-3.4 6.4-3.9 0.9-3.8 6.7-28 9.7-37.3 3.5-11 14.3-8.4 14.4-8.3 0.5 0.1 0.9 0.7 0.7 1.2-0.1 0.5-0.7 0.9-1.2 0.7l0 0c-0.4-0.1-9.1-2.2-12 7-3.2 10.1-9.7 37.4-9.8 37.7-0.1 0.3-0.3 0.6-0.6 0.7-0.1 0-12.8 4.9-11.9 15.4 0.4 4.7 5 8.3 10.5 8.3 0 0 0 0 0 0 6.6 0 11.6 5.4 11.9 5.6 0.1 0.1 0.1 0.1 0.1 0.2 0.1 0.1 2 3.3 8.9 3.3 0.6 0 1 0.5 1 1C52 91.6 51.6 92.1 51 92.1z" data-fill-palette-color="accent"></path><path fill="#ffffff" d="M50.2 92.1c-0.2 0-0.4 0-0.6 0-0.6 0-1-0.5-1-1 0-0.6 0.5-1 1-1 6.9 0.2 8.9-3 9-3.1 0-0.1 0.1-0.1 0.1-0.2 0.2-0.2 5.3-5.3 11.7-5.3 0.1 0 0.2 0 0.4 0 5.5 0.2 10.2-3.4 10.7-8C82.7 63 70.1 57.8 70 57.8c-0.3-0.1-0.5-0.4-0.6-0.7-0.1-0.3-5.8-27.8-8.8-37.9-2.7-9.3-11.5-7.4-11.8-7.3-0.5 0.1-1.1-0.2-1.2-0.8-0.1-0.5 0.2-1.1 0.8-1.2 0.1 0 11-2.4 14.2 8.7 2.8 9.4 7.9 33.7 8.7 37.6 1.1 0.5 3.7 1.8 6.3 4.1 4.4 3.8 6.5 8.5 6 13.5-0.6 5.7-6.2 9.9-12.8 9.8-5.4-0.2-9.9 4.1-10.5 4.6C59.8 88.8 57.2 92.1 50.2 92.1z" data-fill-palette-color="accent"></path></g><path fill="#ffffff" d="M40.7 87.6c-0.3 0-0.7-0.2-0.8-0.5-1.3-2.1-5.3-7.6-8.1-8.3-0.5-0.1-0.9-0.7-0.7-1.2 0.1-0.5 0.7-0.9 1.2-0.7 4 1 8.7 8.4 9.3 9.2 0.3 0.5 0.2 1.1-0.3 1.4C41 87.6 40.8 87.6 40.7 87.6z" data-fill-palette-color="accent"></path><path fill="#ffffff" d="M59.8 88.1c-0.2 0-0.4-0.1-0.5-0.2-0.5-0.3-0.6-0.9-0.3-1.4 0.6-0.9 5.6-8.7 9.6-9.7 0.5-0.1 1.1 0.2 1.2 0.7 0.1 0.5-0.2 1.1-0.7 1.2-2.7 0.7-7 6.6-8.4 8.8C60.5 88 60.2 88.1 59.8 88.1z" data-fill-palette-color="accent"></path><path fill="#ffffff" d="M40.1 57.9c-0.1 0-0.1 0-0.2 0-0.5-0.1-0.9-0.7-0.8-1.2l8.4-37.2c0.1-0.5 0.7-0.9 1.2-0.8 0.5 0.1 0.9 0.7 0.8 1.2l-8.4 37.2C41 57.6 40.6 57.9 40.1 57.9z" data-fill-palette-color="accent"></path></g></svg></g></svg></g></svg></g></svg></g></svg></g><g></g></svg></g><defs></defs></svg><rect width="76.597608475966" height="95.48100000000001" fill="none" stroke="none" visibility="hidden"></rect></g></svg></g></svg>